<!DOCTYPE svg PUBLIC "-//W3C//DTD SVG 20010904//EN" "http://www.w3.org/TR/2001/REC-SVG-20010904/DTD/svg10.dtd">
<svg version="1.0" xmlns="http://www.w3.org/2000/svg" width="14px" height="19px" viewBox="0 0 140 190" preserveAspectRatio="xMidYMid meet">
<g id="layer1" fill="#625f60" stroke="none">
 <path d="M121 144 c0 -11 3 -14 6 -6 3 7 2 16 -1 19 -3 4 -6 -2 -5 -13z"/>
 </g>
<g id="layer2" fill="#939192" stroke="none">
 <path d="M11 104 c0 -11 3 -14 6 -6 3 7 2 16 -1 19 -3 4 -6 -2 -5 -13z"/>
 <path d="M81 86 c2 -2 14 -9 27 -15 18 -10 22 -9 22 4 0 10 -9 15 -27 15 -14 0 -24 -2 -22 -4z"/>
 </g>
<g id="layer3" fill="#595657" stroke="none">
 <path d="M58 183 c7 -3 16 -2 19 1 4 3 -2 6 -13 5 -11 0 -14 -3 -6 -6z"/>
 <path d="M98 183 c7 -3 16 -2 19 1 4 3 -2 6 -13 5 -11 0 -14 -3 -6 -6z"/>
 <path d="M131 124 c0 -11 3 -14 6 -6 3 7 2 16 -1 19 -3 4 -6 -2 -5 -13z"/>
 <path d="M1 94 c0 -11 3 -14 6 -6 3 7 2 16 -1 19 -3 4 -6 -2 -5 -13z"/>
 <path d="M131 84 c0 -11 3 -14 6 -6 3 7 2 16 -1 19 -3 4 -6 -2 -5 -13z"/>
 <path d="M70 65 c0 -8 7 -15 15 -15 8 0 15 7 15 15 0 8 -7 15 -15 15 -8 0 -15 -7 -15 -15z"/>
 </g>
<g id="layer4" fill="#b2b1b1" stroke="none">
 <path d="M102 88 c-16 -16 -15 -28 3 -28 8 0 15 9 15 20 0 23 -2 24 -18 8z"/>
 <path d="M47 83 c-13 -12 -7 -33 8 -33 8 0 15 9 15 20 0 20 -11 26 -23 13z"/>
 </g>
<g id="layer5" fill="#716e6f" stroke="none">
 <path d="M31 152 c-13 -25 -14 -42 -2 -42 8 0 23 52 16 58 -2 2 -8 -5 -14 -16z"/>
 <path d="M121 154 c0 -11 3 -14 6 -6 3 7 2 16 -1 19 -3 4 -6 -2 -5 -13z"/>
 <path d="M11 84 c0 -11 3 -14 6 -6 3 7 2 16 -1 19 -3 4 -6 -2 -5 -13z"/>
 <path d="M100 80 c0 -5 5 -10 10 -10 6 0 10 5 10 10 0 6 -4 10 -10 10 -5 0 -10 -4 -10 -10z"/>
 <path d="M50 70 c0 -5 7 -10 15 -10 8 0 15 5 15 10 0 6 -7 10 -15 10 -8 0 -15 -4 -15 -10z"/>
 </g>
<g id="layer6" fill="#e0e1e1" stroke="none">
 <path d="M121 134 c0 -11 3 -14 6 -6 3 7 2 16 -1 19 -3 4 -6 -2 -5 -13z"/>
 <path d="M30 50 c0 -29 4 -40 15 -40 11 0 15 11 15 40 0 29 -4 40 -15 40 -11 0 -15 -11 -15 -40z"/>
 <path d="M80 80 c0 -5 7 -10 15 -10 8 0 15 5 15 10 0 6 -7 10 -15 10 -8 0 -15 -4 -15 -10z"/>
 </g>
<g id="layer7" fill="#cecece" stroke="none">
 <path d="M27 118 c-6 -20 6 -37 26 -38 12 0 8 37 -7 49 -11 9 -15 7 -19 -11z"/>
 <path d="M58 59 c-22 -12 -24 -49 -3 -49 8 0 15 7 15 15 0 9 7 18 15 21 18 7 20 24 3 24 -7 0 -21 -5 -30 -11z"/>
 </g>
<g id="layer8" fill="#383536" stroke="none">
 <path d="M12 150 c-15 -48 -16 -90 -2 -90 6 0 10 -13 10 -30 0 -27 3 -30 30 -30 17 0 30 5 30 13 0 6 14 20 30 29 27 15 30 22 30 67 0 75 -4 81 -64 81 -51 0 -51 0 -64 -40z m104 13 c7 -10 14 -32 14 -49 0 -28 -5 -34 -37 -47 -38 -15 -38 -15 -41 10 -3 18 -8 24 -21 20 -16 -4 -15 1 6 39 27 48 56 57 79 27z"/>
 </g>
<g id="layer9" fill="#fdfdfd" stroke="none">
 <path d="M36 155 c-8 -30 20 -95 39 -95 7 0 16 7 19 16 5 13 9 14 21 4 13 -10 15 -8 15 13 0 13 -3 39 -6 56 -6 28 -10 31 -44 31 -32 0 -39 -4 -44 -25z"/>
 <path d="M10 94 c0 -8 5 -12 10 -9 6 3 10 10 10 16 0 5 -4 9 -10 9 -5 0 -10 -7 -10 -16z"/>
 </g>

</svg>